<?xml version="1.0" encoding="iso-8859-1"?>
<!-- Generator: Adobe Illustrator 13.0.0, SVG Export Plug-In . SVG Version: 6.00 Build 14948)  -->
<!DOCTYPE svg PUBLIC "-//W3C//DTD SVG 1.1//EN" "http://www.w3.org/Graphics/SVG/1.1/DTD/svg11.dtd">
<svg version="1.1" id="Calque_1" xmlns="http://www.w3.org/2000/svg" xmlns:xlink="http://www.w3.org/1999/xlink" x="0px" y="0px"
	 width="800px" height="800px" viewBox="0 0 800 800" style="enable-background:new 0 0 800 800;" xml:space="preserve">
<ellipse style="fill:#3498DB;" cx="388.5" cy="401.5" rx="373.137" ry="366"/>
<g>
	<g>
		<path style="fill:#FFFFFF;" d="M634.731,350.74c-33.211-45.813-97.848-58.392-152.895-32.843
			c25.379-42.046,26.462-93.862-1.245-132.083c-38.209-52.708-118.019-61.426-177.525-18.288l-135.042,98.758
			c-3.399,2.465-4.023,6.375-1.559,9.776l130.558,180.697l3.631,5.606l0.296-0.172c42.492,58.811,84.983,117.621,127.477,176.431
			c1.607,2.22,3.832,3.247,6.127,3.017c-14.476-64.013-28.855-135.583-42.287-201.699c-27.993,9.859-55.987,19.719-83.98,29.578
			c-3.517,1.381-0.92-6.854,0.082-8.321c11.807-92.906,25.063-184.163,37.898-277.313c1.771-12.857,3.539-26.051,6.607-38.259
			c13.096,67.671,28.85,137.18,42.052,204.929c27.994-9.858,55.986-19.721,83.979-29.579c2.943-0.064,0.061,13.206-0.624,18.188
			c-13.526,98.585-28.594,203.195-43.008,302.361c0.988-0.213,1.979-0.651,2.929-1.341l159.258-115.447
			C656.4,482.01,672.939,403.447,634.731,350.74z"/>
	</g>
</g>
<g>
	<path style="fill:#FFFFFF;" d="M148.043,308.796c2.622,5.358,1.823,11.407-2.17,14.292c-4.595,3.317-11.835,1.306-16.042-4.52
		l-11.367-15.737c-0.243-0.336-0.207-0.702,0.09-0.917c5.126-3.688,10.253-7.378,15.379-11.066l-0.017-0.029l0.49-0.313
		l15.753-11.334c0.297-0.214,0.654-0.134,0.897,0.203l9.716,13.35c4.248,5.88,3.882,13.387-0.712,16.707
		C156.73,311.836,152.007,311.439,148.043,308.796z M135.637,291.322l9.331,12.818c3.762,5.208,10.186,7.131,14.287,4.169
		c4.099-2.962,4.294-9.664,0.532-14.873l-9.304-12.88L135.637,291.322z M134.697,292.003c-4.949,3.589-9.898,7.178-14.849,10.767
		l10.971,15.085c3.723,5.15,10.146,7.074,14.245,4.111c4.102-2.962,4.295-9.663,0.574-14.815l-1.659-2.296L134.697,292.003z"/>
	<path style="fill:#FFFFFF;" d="M158.228,323.54c9.336-6.743,22.295-4.514,28.931,4.67c6.674,9.24,4.676,22.188-4.659,28.933
		c-9.337,6.743-22.256,4.569-28.931-4.67C146.934,343.287,148.892,330.284,158.228,323.54z M159.036,324.66
		c-8.743,6.315-10.709,18.474-4.481,27.098c6.271,8.682,18.39,10.58,27.133,4.265s10.75-18.417,4.481-27.098
		C179.94,320.299,167.781,318.345,159.036,324.66z"/>
	<path style="fill:#FFFFFF;" d="M187.352,363.862c9.336-6.742,22.295-4.514,28.931,4.67c6.674,9.241,4.676,22.188-4.66,28.932
		c-9.337,6.743-22.256,4.571-28.931-4.669C176.059,383.61,178.016,370.605,187.352,363.862z M188.161,364.982
		c-8.744,6.314-10.71,18.473-4.481,27.098c6.271,8.68,18.389,10.578,27.132,4.263c8.745-6.315,10.751-18.417,4.482-27.097
		C209.064,360.622,196.904,358.668,188.161,364.982z"/>
	<path style="fill:#FFFFFF;" d="M242.384,422.883l-0.494,0.355l-0.809-1.12l0.495-0.355c4.297-3.104,4.015-10.571-0.395-16.675
		s-11.408-8.72-15.707-5.615c-7.605,5.494,10.192,30.136,1.457,36.358c-4.593,3.318-12.972,0.252-18.352-7.195
		c-5.501-7.615-5.707-16.33-1.063-19.685l0.495-0.356l0.808,1.12l-0.493,0.357c-4.249,3.067-3.612,11.128,1.242,17.851
		c4.732,6.551,12.356,9.821,16.556,6.787c7.756-5.601-10.061-30.057-1.457-36.357c4.692-3.389,12.527-0.867,17.503,6.021
		C247.146,411.264,247.078,419.494,242.384,422.883z"/>
	<path style="fill:#FFFFFF;" d="M265.268,436.353l9.667,13.385l0.405,0.562l-0.989,0.713l-0.404-0.562l-9.667-13.384l-32.107,23.19
		l-0.494,0.355l-0.809-1.119l0.493-0.354l32.107-23.192l-9.749-13.496l-0.405-0.561l0.988-0.713l0.404,0.56l9.749,13.497
		L265.268,436.353z"/>
	<path style="fill:#FFFFFF;" d="M247.907,482.044l-0.493,0.357l-0.811-1.121l0.494-0.355l32.604-23.548
		c0.492-0.357,1.249,0.376,0.965,0.921l-19.844,39.132l43.344-6.597c0.607-0.098,1.064,0.853,0.571,1.208l-32.561,23.604
		l-0.494,0.357l-0.81-1.122l0.495-0.355l30.288-21.963l-41.853,6.369c-0.466,0.081-0.952-0.59-0.728-1.008l19.16-37.785
		L247.907,482.044z"/>
	<path style="fill:#FFFFFF;" d="M277.604,523.572l-0.377,0.104l-0.89-1.233l0.934-0.163l44.333-7.307
		c0.467-0.083,0.953,0.589,0.728,1.008l-20.87,39.788l-0.449,0.836l-0.892-1.233l0.217-0.324l20.197-38.536L277.604,523.572z"/>
	<path style="fill:#FFFFFF;" d="M332.728,584.488l0.367-0.011l0.931,1.288l-1.063,0.088c-5.307,0.251-13.02-3.04-17.55-9.311
		c-6.714-9.299-4.717-22.245,4.62-28.987c9.335-6.745,22.255-4.571,28.971,4.727c4.489,6.216,5.359,14.703,3.191,19.509
		l-0.458,0.927l-0.89-1.232l0.126-0.347c2.051-4.547,1.207-12.377-2.958-18.144c-6.311-8.736-18.431-10.635-27.173-4.319
		c-8.744,6.314-10.751,18.416-4.44,27.152C320.606,581.654,327.781,584.821,332.728,584.488z"/>
	<path style="fill:#FFFFFF;" d="M346.728,584.519c9.336-6.746,22.297-4.515,28.931,4.668c6.674,9.241,4.676,22.188-4.66,28.933
		c-9.336,6.743-22.256,4.569-28.93-4.672C335.435,604.265,337.392,591.262,346.728,584.519z M347.537,585.638
		c-8.743,6.314-10.711,18.473-4.481,27.097c6.27,8.681,18.39,10.58,27.132,4.265c8.745-6.315,10.751-18.418,4.482-27.101
		C368.441,581.276,356.281,579.321,347.537,585.638z"/>
	<path style="fill:#FFFFFF;" d="M361.979,639.975l-0.493,0.355l-0.81-1.119l0.494-0.357l32.603-23.547
		c0.493-0.356,1.249,0.375,0.966,0.921l-19.843,39.132l43.343-6.595c0.607-0.099,1.065,0.85,0.571,1.206l-32.563,23.604
		l-0.493,0.357l-0.81-1.12l0.494-0.357l30.289-21.963l-41.853,6.369c-0.469,0.082-0.952-0.589-0.729-1.007l19.161-37.786
		L361.979,639.975z"/>
</g>
</svg>
